<svg width="36" height="40" viewBox="0 0 36 40" fill="none" xmlns="http://www.w3.org/2000/svg">
<path d="M23.3515 34.9216H10.8516L12.8828 16.5623H20.6172L23.3515 34.9216Z" fill="#F35B5B"/>
<path d="M22.9219 13.8281H10.7344V14.9219H22.9219V13.8281Z" fill="#F35B5B"/>
<path d="M25.9687 37.4612H8.23438L10.8125 35.3127H23.7031L25.9687 37.4612Z" fill="#F35B5B"/>
<path d="M26.2031 37.7734H8V40H26.2031V37.7734Z" fill="#F35B5B"/>
<path d="M19.7187 2.57788H13.8203V3.281H19.7187V2.57788Z" fill="#F35B5B"/>
<path d="M17.1016 0H16.3984V5.89843H17.1016V0Z" fill="#F35B5B"/>
<path d="M20.4609 16.4058H13L13.3906 15.2729H20.1094L20.4609 16.4058Z" fill="#F35B5B"/>
<path d="M16.75 5.74268C16.75 5.74268 12.4141 7.46142 10.6953 7.46142C10.6953 7.46142 13.6641 9.18017 13.6641 13.5161H16.75H19.8359C19.8359 9.18017 22.8047 7.46142 22.8047 7.46142C21.0859 7.46142 16.75 5.74268 16.75 5.74268Z" fill="#F35B5B"/>
<path d="M30.3984 17.7344H25.7109V22.4219H30.3984V17.7344Z" fill="#F35B5B" fill-opacity="0.5"/>
<path d="M4.68749 22H0V26.6875H4.68749V22Z" fill="#F35B5B" fill-opacity="0.5"/>
<path d="M4.68749 12H0V16.6875H4.68749V12Z" fill="#F35B5B" fill-opacity="0.5"/>
<path d="M26.0859 22.4219H21.3984V27.1094H26.0859V22.4219Z" fill="#F35B5B" fill-opacity="0.5"/>
<path d="M35.6875 32H31V36.6875H35.6875V32Z" fill="#F35B5B" fill-opacity="0.5"/>
<path d="M9.37499 17.0781H4.6875V21.7656H9.37499V17.0781Z" fill="#F35B5B" fill-opacity="0.5"/>
<path d="M30.3984 27.1094H25.7109V31.7969H30.3984V27.1094Z" fill="#F35B5B" fill-opacity="0.5"/>
</svg>
